
<?xml version="1.0" encoding="utf-8"?>
<!-- Generator: Adobe Illustrator 19.0.0, SVG Export Plug-In . SVG Version: 6.00 Build 0)  -->
<svg version="1.1" id="Calque_1" xmlns="http://www.w3.org/2000/svg" xmlns:xlink="http://www.w3.org/1999/xlink" x="0px" y="0px"
	 viewBox="0 0 70.6 61.8" style="enable-background:new 0 0 70.6 61.8;" xml:space="preserve">
<path d="M70.3,29.7L53.8,1.1c-0.4-0.7-1.2-1.1-2-1.1h-33c-0.8,0-1.6,0.4-2,1.1L0.3,29.7c-0.4,0.7-0.4,1.6,0,2.3l16.5,28.6
	c0.4,0.7,1.2,1.1,2,1.1h33c0.8,0,1.6-0.4,2-1.1L70.3,32C70.7,31.3,70.7,30.5,70.3,29.7z M35.3,42.9c-6.6,0-12-5.4-12-12
	s5.4-12,12-12c6.6,0,12,5.4,12,12S41.9,42.9,35.3,42.9z"/>
</svg>
